<?xml version="1.0" encoding="UTF-8"?>
<!DOCTYPE svg PUBLIC "-//W3C//DTD SVG 1.1//EN" "http://www.w3.org/Graphics/SVG/1.1/DTD/svg11.dtd">
<svg xmlns="http://www.w3.org/2000/svg" version="1.1" width="1555px" height="1392px" style="shape-rendering:geometricPrecision; text-rendering:geometricPrecision; image-rendering:optimizeQuality; fill-rule:evenodd; clip-rule:evenodd" xmlns:xlink="http://www.w3.org/1999/xlink">
<g><path style="opacity:0.999" fill="#016098" d="M -0.5,228.5 C 108.834,228.333 218.167,228.5 327.5,229C 441.193,238.729 526.693,292.562 584,390.5C 605.346,430.693 617.846,473.36 621.5,518.5C 621.5,629.167 621.5,739.833 621.5,850.5C 620.667,757.001 620.167,663.334 620,569.5C 607.423,673.57 556.923,753.07 468.5,808C 419.633,836.217 366.966,850.384 310.5,850.5C 310.5,954.5 310.5,1058.5 310.5,1162.5C 206.833,1162.5 103.167,1162.5 -0.5,1162.5C -0.5,851.167 -0.5,539.833 -0.5,228.5 Z"/></g>
<g><path style="opacity:0.998" fill="#fa4237" d="M 1243.5,850.5 C 1243.5,954.5 1243.5,1058.5 1243.5,1162.5C 1142.53,1160.26 1060.37,1120.26 997,1042.5C 960.532,994.888 939.032,941.221 932.5,881.5C 932.819,871.251 932.486,861.084 931.5,851C 828.167,850.5 724.834,850.333 621.5,850.5C 621.5,739.833 621.5,629.167 621.5,518.5C 631.863,407.865 684.53,324.365 779.5,268C 867.729,221.508 958.396,216.174 1051.5,252C 1142.49,292.462 1202.65,360.296 1232,455.5C 1238.16,478.102 1241.82,501.102 1243,524.5C 1243.5,633.166 1243.67,741.833 1243.5,850.5 Z"/></g>
<g><path style="opacity:0.994" fill="#f9d91e" d="M 1554.5,687.5 C 1554.5,692.833 1554.5,698.167 1554.5,703.5C 1547.83,770.013 1513.49,815.846 1451.5,841C 1386.12,860.447 1329.95,845.614 1283,796.5C 1244.14,747.348 1235.81,693.348 1258,634.5C 1280.47,586.373 1317.64,556.207 1369.5,544C 1439.65,533.504 1494.15,557.67 1533,616.5C 1545.56,638.679 1552.73,662.346 1554.5,687.5 Z"/></g>
<g><path style="opacity:0.997" fill="#01ada8" d="M 621.5,850.5 C 724.834,850.333 828.167,850.5 931.5,851C 932.486,861.084 932.819,871.251 932.5,881.5C 932.5,975.167 932.5,1068.83 932.5,1162.5C 725.167,1162.5 517.833,1162.5 310.5,1162.5C 310.5,1058.5 310.5,954.5 310.5,850.5C 366.966,850.384 419.633,836.217 468.5,808C 556.923,753.07 607.423,673.57 620,569.5C 620.167,663.334 620.667,757.001 621.5,850.5 Z"/></g>
<g><path style="opacity:0.994" fill="#f9d91e" d="M 1243.5,850.5 C 1347.17,850.5 1450.83,850.5 1554.5,850.5C 1554.5,954.5 1554.5,1058.5 1554.5,1162.5C 1450.83,1162.5 1347.17,1162.5 1243.5,1162.5C 1243.5,1058.5 1243.5,954.5 1243.5,850.5 Z"/></g>
</svg>
